<svg width="70" height="46" viewBox="0 0 70 46" fill="none" xmlns="http://www.w3.org/2000/svg">
<path d="M22.0833 9.10625V7.81458C22.0833 5.46806 23.2135 3.57899 25.474 2.1474C27.7344 0.715799 30.9097 0 35 0C39.0903 0 42.2656 0.715799 44.526 2.1474C46.7865 3.57899 47.9167 5.46806 47.9167 7.81458V9.10625H22.0833ZM24.0854 7.16875H45.9146C45.85 5.68333 44.8113 4.4401 42.7984 3.43906C40.7856 2.43802 38.1861 1.9375 35 1.9375C31.8139 1.9375 29.2036 2.43802 27.1693 3.43906C25.1349 4.4401 24.1069 5.68333 24.0854 7.16875ZM22.0833 14.7896V12.8521C22.6369 12.7321 23.4127 12.6153 23.9401 12.1417C24.4675 11.6681 25.3125 11.4313 26.475 11.4313C27.6375 11.4313 28.4071 11.6681 28.7839 12.1417C29.1606 12.6153 29.7903 12.8521 30.6729 12.8521C31.5556 12.8521 32.2068 12.6153 32.6266 12.1417C33.0464 11.6681 33.8375 11.4313 35 11.4313C36.1625 11.4313 36.9536 11.6681 37.3734 12.1417C37.7932 12.6153 38.4444 12.8521 39.3271 12.8521C40.2097 12.8521 40.8394 12.6153 41.2162 12.1417C41.5929 11.6681 42.3625 11.4313 43.525 11.4313C44.6875 11.4313 45.5325 11.6681 46.0599 12.1417C46.5873 12.6153 47.2063 12.8521 47.9167 12.8521V14.7896C46.7542 14.7896 45.9523 14.5528 45.5109 14.0792C45.0696 13.6056 44.4076 13.3688 43.525 13.3688C42.6424 13.3688 42.0127 13.6056 41.6359 14.0792C41.2592 14.5528 40.4896 14.7896 39.3271 14.7896C38.1646 14.7896 37.3734 14.5528 36.9536 14.0792C36.5339 13.6056 35.8826 13.3688 35 13.3688C34.1174 13.3688 33.4661 13.6056 33.0464 14.0792C32.6266 14.5528 31.8354 14.7896 30.6729 14.7896C29.5104 14.7896 28.7408 14.5528 28.3641 14.0792C27.9873 13.6056 27.3576 13.3688 26.475 13.3688C25.5924 13.3688 24.9304 13.6056 24.4891 14.0792C24.0477 14.5528 23.2458 14.7896 22.0833 14.7896ZM24.0208 23.25C23.5042 23.25 23.0521 23.0562 22.6646 22.6687C22.2771 22.2812 22.0833 21.8292 22.0833 21.3125V17.1792H47.9167V21.3125C47.9167 21.8292 47.7229 22.2812 47.3354 22.6687C46.9479 23.0562 46.4958 23.25 45.9792 23.25H24.0208ZM24.0208 21.3125H45.9792V19.1167H24.0208V21.3125Z" fill="#4A4B56"/>
<path d="M30.012 42.25H25.08V33.682H30.012V35.17H26.892V37.054H29.796V38.542H26.892V40.75H30.012V42.25ZM37.5428 35.698V40.942H38.5028V44.602H36.8948V42.25H32.4908V44.602H30.8828V40.942H31.4348C31.7228 40.502 31.9668 40.002 32.1668 39.442C32.3668 38.874 32.5268 38.27 32.6468 37.63C32.7668 36.99 32.8548 36.346 32.9108 35.698H37.5428ZM34.4108 37.042C34.3468 37.522 34.2668 37.99 34.1708 38.446C34.0748 38.894 33.9548 39.326 33.8108 39.742C33.6748 40.158 33.5068 40.558 33.3068 40.942H35.7548V37.042H34.4108ZM42.3076 35.566C43.1876 35.566 43.8596 35.758 44.3236 36.142C44.7956 36.518 45.0316 37.098 45.0316 37.882V42.25H43.7836L43.4356 41.362H43.3876C43.2036 41.594 43.0116 41.786 42.8116 41.938C42.6196 42.09 42.3956 42.198 42.1396 42.262C41.8916 42.334 41.5836 42.37 41.2156 42.37C40.8316 42.37 40.4836 42.298 40.1716 42.154C39.8676 42.002 39.6276 41.774 39.4516 41.47C39.2756 41.158 39.1876 40.766 39.1876 40.294C39.1876 39.598 39.4316 39.086 39.9196 38.758C40.4076 38.422 41.1396 38.238 42.1156 38.206L43.2556 38.17V37.882C43.2556 37.538 43.1636 37.286 42.9796 37.126C42.8036 36.966 42.5556 36.886 42.2356 36.886C41.9156 36.886 41.6036 36.934 41.2996 37.03C40.9956 37.118 40.6916 37.23 40.3876 37.366L39.7996 36.154C40.1516 35.97 40.5396 35.826 40.9636 35.722C41.3956 35.618 41.8436 35.566 42.3076 35.566ZM42.5596 39.238C41.9836 39.254 41.5836 39.358 41.3596 39.55C41.1356 39.742 41.0236 39.994 41.0236 40.306C41.0236 40.578 41.1036 40.774 41.2636 40.894C41.4236 41.006 41.6316 41.062 41.8876 41.062C42.2716 41.062 42.5956 40.95 42.8596 40.726C43.1236 40.494 43.2556 40.17 43.2556 39.754V39.214L42.5596 39.238Z" fill="#4A4B56"/>
</svg>
