<svg width="70" height="45" viewBox="0 0 70 45" fill="none" xmlns="http://www.w3.org/2000/svg">
<path fill-rule="evenodd" clip-rule="evenodd" d="M44.4057 19.231C44.4057 23.1453 39.0378 23.5978 35.0012 23.5978L34.7123 23.5975C32.1405 23.5913 25.5943 23.4289 25.5943 19.2073C25.5943 15.3729 30.7465 14.8604 34.7524 14.8411L35.29 14.8408C37.8617 14.847 44.4057 15.0094 44.4057 19.231ZM35.0012 16.6219C29.9409 16.6219 27.3757 17.4912 27.3757 19.2073C27.3757 20.9388 29.9409 21.8164 35.0012 21.8164C40.0603 21.8164 42.6243 20.9471 42.6243 19.231C42.6243 17.4995 40.0603 16.6219 35.0012 16.6219ZM35.0012 0C38.4784 0 41.3061 2.82883 41.3061 6.30607C41.3061 9.78332 38.4784 12.611 35.0012 12.611H34.9632C31.4931 12.6003 28.6821 9.77026 28.6939 6.30251C28.6939 2.82883 31.5228 0 35.0012 0ZM35.0012 1.69587C32.4586 1.69587 30.3898 3.76345 30.3898 6.30607C30.3815 8.84038 32.4348 10.9068 34.9667 10.9163L35.0012 11.7642V10.9163C37.5426 10.9163 39.6102 8.8475 39.6102 6.30607C39.6102 3.76345 37.5426 1.69587 35.0012 1.69587Z" fill="#4A4B56"/>
<path d="M7.08 41.5978V33.0298H13.86V41.5978H12.048V34.5418H8.892V41.5978H7.08ZM19.5254 34.9258C20.2614 34.9258 20.8574 35.2138 21.3134 35.7898C21.7694 36.3578 21.9974 37.1978 21.9974 38.3098C21.9974 39.0538 21.8894 39.6818 21.6734 40.1938C21.4574 40.6978 21.1614 41.0778 20.7854 41.3338C20.4094 41.5898 19.9734 41.7178 19.4774 41.7178C19.1654 41.7178 18.8934 41.6778 18.6614 41.5978C18.4374 41.5178 18.2454 41.4138 18.0854 41.2858C17.9254 41.1578 17.7854 41.0218 17.6654 40.8778H17.5694C17.6014 41.0298 17.6254 41.1898 17.6414 41.3578C17.6574 41.5178 17.6654 41.6778 17.6654 41.8378V44.4778H15.8774V35.0458H17.3294L17.5814 35.8978H17.6654C17.7854 35.7218 17.9294 35.5618 18.0974 35.4178C18.2654 35.2658 18.4654 35.1458 18.6974 35.0578C18.9374 34.9698 19.2134 34.9258 19.5254 34.9258ZM18.9494 36.3538C18.6374 36.3538 18.3894 36.4178 18.2054 36.5458C18.0214 36.6738 17.8854 36.8698 17.7974 37.1338C17.7174 37.3898 17.6734 37.7138 17.6654 38.1058V38.2978C17.6654 38.7218 17.7054 39.0818 17.7854 39.3778C17.8654 39.6658 18.0014 39.8858 18.1934 40.0378C18.3854 40.1898 18.6454 40.2658 18.9734 40.2658C19.2454 40.2658 19.4694 40.1898 19.6454 40.0378C19.8214 39.8858 19.9534 39.6618 20.0414 39.3658C20.1294 39.0698 20.1734 38.7098 20.1734 38.2858C20.1734 37.6458 20.0734 37.1658 19.8734 36.8458C19.6814 36.5178 19.3734 36.3538 18.9494 36.3538ZM29.4232 38.3098C29.4232 38.8538 29.3472 39.3378 29.1952 39.7618C29.0512 40.1858 28.8392 40.5458 28.5592 40.8418C28.2872 41.1298 27.9552 41.3498 27.5632 41.5018C27.1712 41.6458 26.7272 41.7178 26.2312 41.7178C25.7752 41.7178 25.3512 41.6458 24.9592 41.5018C24.5752 41.3498 24.2432 41.1298 23.9632 40.8418C23.6832 40.5458 23.4632 40.1858 23.3032 39.7618C23.1512 39.3378 23.0752 38.8538 23.0752 38.3098C23.0752 37.5818 23.2032 36.9698 23.4592 36.4738C23.7152 35.9698 24.0832 35.5858 24.5632 35.3218C25.0432 35.0578 25.6112 34.9258 26.2672 34.9258C26.8832 34.9258 27.4272 35.0578 27.8992 35.3218C28.3712 35.5858 28.7432 35.9698 29.0152 36.4738C29.2872 36.9698 29.4232 37.5818 29.4232 38.3098ZM24.8992 38.3098C24.8992 38.7418 24.9432 39.1058 25.0312 39.4018C25.1272 39.6898 25.2752 39.9098 25.4752 40.0618C25.6752 40.2058 25.9352 40.2778 26.2552 40.2778C26.5752 40.2778 26.8312 40.2058 27.0232 40.0618C27.2232 39.9098 27.3672 39.6898 27.4552 39.4018C27.5512 39.1058 27.5992 38.7418 27.5992 38.3098C27.5992 37.8778 27.5512 37.5178 27.4552 37.2298C27.3672 36.9418 27.2232 36.7258 27.0232 36.5818C26.8232 36.4378 26.5632 36.3658 26.2432 36.3658C25.7712 36.3658 25.4272 36.5298 25.2112 36.8578C25.0032 37.1778 24.8992 37.6618 24.8992 38.3098ZM35.6888 35.0098C36.4488 35.0738 37.0888 35.2538 37.6088 35.5498C38.1288 35.8378 38.5208 36.2178 38.7848 36.6898C39.0568 37.1618 39.1928 37.7058 39.1928 38.3218C39.1928 38.9298 39.0608 39.4738 38.7968 39.9538C38.5408 40.4338 38.1528 40.8218 37.6328 41.1178C37.1208 41.4058 36.4728 41.5818 35.6888 41.6458V44.4778H34.0328V41.6458C33.2808 41.5738 32.6408 41.3938 32.1128 41.1058C31.5928 40.8098 31.1928 40.4258 30.9128 39.9538C30.6408 39.4738 30.5048 38.9298 30.5048 38.3218C30.5048 37.6978 30.6288 37.1458 30.8768 36.6658C31.1328 36.1858 31.5208 35.8018 32.0408 35.5138C32.5688 35.2258 33.2328 35.0578 34.0328 35.0098V32.4778H35.6888V35.0098ZM34.0328 36.3538C33.6888 36.4018 33.3888 36.5178 33.1328 36.7018C32.8768 36.8778 32.6808 37.1058 32.5448 37.3858C32.4088 37.6578 32.3408 37.9698 32.3408 38.3218C32.3408 38.6738 32.4048 38.9898 32.5328 39.2698C32.6688 39.5498 32.8608 39.7778 33.1088 39.9538C33.3648 40.1298 33.6728 40.2418 34.0328 40.2898V36.3538ZM35.6888 40.2898C36.0488 40.2418 36.3528 40.1298 36.6008 39.9538C36.8488 39.7778 37.0368 39.5498 37.1648 39.2698C37.2928 38.9898 37.3568 38.6738 37.3568 38.3218C37.3568 37.9698 37.2888 37.6578 37.1528 37.3858C37.0168 37.1058 36.8248 36.8778 36.5768 36.7018C36.3288 36.5258 36.0328 36.4178 35.6888 36.3778V40.2898ZM42.4023 37.6378C42.4023 37.7738 42.3943 37.9418 42.3783 38.1418C42.3703 38.3418 42.3583 38.5458 42.3423 38.7538C42.3343 38.9618 42.3223 39.1458 42.3063 39.3058C42.2903 39.4658 42.2783 39.5778 42.2703 39.6418L45.2943 35.0458H47.4423V41.5978H45.7143V38.9818C45.7143 38.7658 45.7223 38.5298 45.7383 38.2738C45.7543 38.0098 45.7703 37.7658 45.7863 37.5418C45.8103 37.3098 45.8263 37.1338 45.8343 37.0138L42.8223 41.5978H40.6743V35.0458H42.4023V37.6378ZM55.179 41.5978H53.391V36.3898H51.747C51.667 37.3498 51.567 38.1698 51.447 38.8498C51.335 39.5218 51.191 40.0698 51.015 40.4938C50.847 40.9178 50.631 41.2298 50.367 41.4298C50.103 41.6218 49.779 41.7178 49.395 41.7178C49.187 41.7178 48.999 41.7018 48.831 41.6698C48.663 41.6378 48.511 41.5898 48.375 41.5258V40.0978C48.463 40.1298 48.555 40.1578 48.651 40.1818C48.747 40.2058 48.847 40.2178 48.951 40.2178C49.063 40.2178 49.167 40.1738 49.263 40.0858C49.367 39.9978 49.463 39.8418 49.551 39.6178C49.647 39.3938 49.735 39.0858 49.815 38.6938C49.895 38.3018 49.967 37.8098 50.031 37.2178C50.103 36.6178 50.167 35.8938 50.223 35.0458H55.179V41.5978ZM60.0934 37.5778C60.7654 37.5778 61.3214 37.6498 61.7614 37.7938C62.2014 37.9298 62.5254 38.1418 62.7334 38.4298C62.9494 38.7178 63.0574 39.0778 63.0574 39.5098C63.0574 39.9338 62.9574 40.3018 62.7574 40.6138C62.5654 40.9258 62.2574 41.1698 61.8334 41.3458C61.4094 41.5138 60.8534 41.5978 60.1654 41.5978H57.0454V35.0458H58.8334V37.5778H60.0934ZM61.2694 39.5338C61.2694 39.2778 61.1654 39.0938 60.9574 38.9818C60.7574 38.8698 60.4574 38.8138 60.0574 38.8138H58.8334V40.3618H60.0814C60.4334 40.3618 60.7174 40.2978 60.9334 40.1698C61.1574 40.0418 61.2694 39.8298 61.2694 39.5338Z" fill="#4A4B56"/>
</svg>
