<svg width="70" height="47" viewBox="0 0 70 47" fill="none" xmlns="http://www.w3.org/2000/svg">
<g clip-path="url(#clip0_136_2413)">
<path d="M23.94 8.29492H46.06M30.94 2.46159V8.13158M39.06 2.46159V7.60659M46.6667 17.4999V10.4999C46.6667 4.66659 44.3333 2.33325 38.5 2.33325H31.5C25.6667 2.33325 23.3333 4.66659 23.3333 10.4999V17.4999C23.3333 23.3333 25.6667 25.6666 31.5 25.6666H38.5C44.3333 25.6666 46.6667 23.3333 46.6667 17.4999Z" stroke="#4A4B56" stroke-width="1.75" stroke-linecap="round" stroke-linejoin="round"/>
<path d="M32.375 16.8583V15.4583C32.375 13.6616 33.6467 12.9266 35.1983 13.8249L36.4117 14.5249L37.625 15.2249C39.1767 16.1233 39.1767 17.5933 37.625 18.4916L36.4117 19.1916L35.1983 19.8916C33.6467 20.7899 32.375 20.0549 32.375 18.2583V16.8583Z" stroke="#4A4B56" stroke-width="1.75" stroke-miterlimit="10" stroke-linecap="round" stroke-linejoin="round"/>
</g>
<path d="M15.992 35.432V36.932H12.392V44H10.58V35.432H15.992ZM22.3157 44H20.5277V38.792H18.8837C18.8037 39.752 18.7037 40.572 18.5837 41.252C18.4717 41.924 18.3277 42.472 18.1517 42.896C17.9837 43.32 17.7677 43.632 17.5037 43.832C17.2397 44.024 16.9157 44.12 16.5317 44.12C16.3237 44.12 16.1357 44.104 15.9677 44.072C15.7997 44.04 15.6477 43.992 15.5117 43.928V42.5C15.5997 42.532 15.6917 42.56 15.7877 42.584C15.8837 42.608 15.9837 42.62 16.0877 42.62C16.1997 42.62 16.3037 42.576 16.3997 42.488C16.5037 42.4 16.5997 42.244 16.6877 42.02C16.7837 41.796 16.8717 41.488 16.9517 41.096C17.0317 40.704 17.1037 40.212 17.1677 39.62C17.2397 39.02 17.3037 38.296 17.3597 37.448H22.3157V44ZM26.8701 37.316C27.7501 37.316 28.4221 37.508 28.8861 37.892C29.3581 38.268 29.5941 38.848 29.5941 39.632V44H28.3461L27.9981 43.112H27.9501C27.7661 43.344 27.5741 43.536 27.3741 43.688C27.1821 43.84 26.9581 43.948 26.7021 44.012C26.4541 44.084 26.1461 44.12 25.7781 44.12C25.3941 44.12 25.0461 44.048 24.7341 43.904C24.4301 43.752 24.1901 43.524 24.0141 43.22C23.8381 42.908 23.7501 42.516 23.7501 42.044C23.7501 41.348 23.9941 40.836 24.4821 40.508C24.9701 40.172 25.7021 39.988 26.6781 39.956L27.8181 39.92V39.632C27.8181 39.288 27.7261 39.036 27.5421 38.876C27.3661 38.716 27.1181 38.636 26.7981 38.636C26.4781 38.636 26.1661 38.684 25.8621 38.78C25.5581 38.868 25.2541 38.98 24.9501 39.116L24.3621 37.904C24.7141 37.72 25.1021 37.576 25.5261 37.472C25.9581 37.368 26.4061 37.316 26.8701 37.316ZM27.1221 40.988C26.5461 41.004 26.1461 41.108 25.9221 41.3C25.6981 41.492 25.5861 41.744 25.5861 42.056C25.5861 42.328 25.6661 42.524 25.8261 42.644C25.9861 42.756 26.1941 42.812 26.4501 42.812C26.8341 42.812 27.1581 42.7 27.4221 42.476C27.6861 42.244 27.8181 41.92 27.8181 41.504V40.964L27.1221 40.988ZM37.2323 39.164C37.2323 39.516 37.1203 39.816 36.8963 40.064C36.6803 40.312 36.3563 40.472 35.9243 40.544V40.592C36.3803 40.648 36.7443 40.804 37.0163 41.06C37.2963 41.316 37.4363 41.644 37.4363 42.044C37.4363 42.324 37.3803 42.584 37.2683 42.824C37.1643 43.064 36.9963 43.272 36.7643 43.448C36.5323 43.624 36.2323 43.76 35.8643 43.856C35.5043 43.952 35.0643 44 34.5443 44H31.4243V37.448H34.5443C35.0563 37.448 35.5123 37.504 35.9123 37.616C36.3203 37.72 36.6403 37.896 36.8723 38.144C37.1123 38.392 37.2323 38.732 37.2323 39.164ZM35.5883 41.948C35.5883 41.692 35.4883 41.508 35.2883 41.396C35.0883 41.276 34.7883 41.216 34.3883 41.216H33.2123V42.764H34.4243C34.7603 42.764 35.0363 42.704 35.2523 42.584C35.4763 42.456 35.5883 42.244 35.5883 41.948ZM35.4203 39.308C35.4203 39.1 35.3403 38.948 35.1803 38.852C35.0203 38.756 34.7843 38.708 34.4723 38.708H33.2123V40.004H34.2683C34.6443 40.004 34.9283 39.952 35.1203 39.848C35.3203 39.736 35.4203 39.556 35.4203 39.308ZM40.7592 37.448V39.968H43.2552V37.448H45.0432V44H43.2552V41.3H40.7592V44H38.9712V37.448H40.7592ZM49.6045 37.316C50.4845 37.316 51.1565 37.508 51.6205 37.892C52.0925 38.268 52.3285 38.848 52.3285 39.632V44H51.0805L50.7325 43.112H50.6845C50.5005 43.344 50.3085 43.536 50.1085 43.688C49.9165 43.84 49.6925 43.948 49.4365 44.012C49.1885 44.084 48.8805 44.12 48.5125 44.12C48.1285 44.12 47.7805 44.048 47.4685 43.904C47.1645 43.752 46.9245 43.524 46.7485 43.22C46.5725 42.908 46.4845 42.516 46.4845 42.044C46.4845 41.348 46.7285 40.836 47.2165 40.508C47.7045 40.172 48.4365 39.988 49.4125 39.956L50.5525 39.92V39.632C50.5525 39.288 50.4605 39.036 50.2765 38.876C50.1005 38.716 49.8525 38.636 49.5325 38.636C49.2125 38.636 48.9005 38.684 48.5965 38.78C48.2925 38.868 47.9885 38.98 47.6845 39.116L47.0965 37.904C47.4485 37.72 47.8365 37.576 48.2605 37.472C48.6925 37.368 49.1405 37.316 49.6045 37.316ZM49.8565 40.988C49.2805 41.004 48.8805 41.108 48.6565 41.3C48.4325 41.492 48.3205 41.744 48.3205 42.056C48.3205 42.328 48.4005 42.524 48.5605 42.644C48.7205 42.756 48.9285 42.812 49.1845 42.812C49.5685 42.812 49.8925 42.7 50.1565 42.476C50.4205 42.244 50.5525 41.92 50.5525 41.504V40.964L49.8565 40.988ZM55.1547 44H53.2227L54.9867 41.408C54.7627 41.312 54.5507 41.184 54.3507 41.024C54.1587 40.856 54.0027 40.644 53.8827 40.388C53.7627 40.132 53.7027 39.828 53.7027 39.476C53.7027 38.82 53.9507 38.32 54.4467 37.976C54.9427 37.624 55.5787 37.448 56.3547 37.448H59.4027V44H57.6147V41.564H56.6307L55.1547 44ZM55.4547 39.488C55.4547 39.76 55.5627 39.976 55.7787 40.136C55.9947 40.288 56.2747 40.364 56.6187 40.364H57.6147V38.708H56.3907C56.0707 38.708 55.8347 38.788 55.6827 38.948C55.5307 39.1 55.4547 39.28 55.4547 39.488Z" fill="#4A4B56"/>
<defs>
<clipPath id="clip0_136_2413">
<rect width="28" height="28" fill="white" transform="translate(21)"/>
</clipPath>
</defs>
</svg>
